<svg id="visual" viewBox="0 0 900 450" width="900" height="450" xmlns="http://www.w3.org/2000/svg" xmlns:xlink="http://www.w3.org/1999/xlink" version="1.1"><rect x="0" y="0" width="900" height="450" fill="#00048e"></rect><path d="M0 362L30 361.8C60 361.7 120 361.3 180 354.3C240 347.3 300 333.7 360 333.3C420 333 480 346 540 350.5C600 355 660 351 720 345.8C780 340.7 840 334.3 870 331.2L900 328L900 451L870 451C840 451 780 451 720 451C660 451 600 451 540 451C480 451 420 451 360 451C300 451 240 451 180 451C120 451 60 451 30 451L0 451Z" fill="#FFFFFF" stroke-linecap="round" stroke-linejoin="miter"></path></svg>